PathFileType	4	(X/Y/Z)	D:\datacapture\jf2lin\2017-09-14 IITTimeSync\timesync2.trc
DataRate	CameraRate	NumFrames	NumMarkers	Units	OrigDataRate	OrigDataStartFrame	OrigNumFrames
100.00	100.00	      46	3	mm	100.00	1796	      2873
Frame#	Time	M1			M2			M3			
		X1	Y1	Z1	X2	Y2	Z2	X3	Y3	Z3	

1796	17.950	131.69376	1314.75952	291.85178	174.63573	1323.89856	262.80917	298.23053	1352.13440	183.66837	
1797	17.960	132.40120	1306.84875	290.44308	175.26549	1316.20422	261.82544	298.75275	1345.45410	183.71048	
1798	17.970	133.71414	1300.25891	288.62207	177.00438	1309.58105	260.27374	299.85144	1340.39880	182.26245	
1799	17.980	134.84760	1293.25122	286.91452	177.76624	1301.15210	259.63678	300.90335	1333.85986	182.58496	
1800	17.990	135.89955	1285.04199	286.04105	178.82875	1294.76941	258.68454	303.11969	1327.92834	181.27919	
1801	18.000	136.49098	1277.82495	283.57837	179.99429	1287.64014	256.79526	303.98788	1321.09314	181.78506	
1802	18.010	138.46404	1271.43311	282.50586	181.61638	1281.74695	255.08980	305.88269	1316.69604	180.52950	
1803	18.020	139.68179	1264.32739	280.49902	182.69388	1275.18909	253.76041	307.10001	1309.88672	180.53793	
1804	18.030	140.49992	1257.63110	278.68637	183.94131	1267.62927	252.79428	308.83383	1304.69580	180.00952	
1805	18.040	141.64221	1250.67859	277.15277	186.12384	1263.55359	250.41461	310.95764	1300.64233	178.88307	
1806	18.050	143.49770	1243.72998	274.31277	187.81044	1255.99316	249.59593	312.42725	1296.32935	178.45029	
1807	18.060	145.66318	1238.00439	272.42700	189.80028	1251.19031	248.00323	314.08795	1291.33850	178.02309	
1808	18.070	148.27213	1231.72058	270.27533	192.04393	1245.13989	246.65369	315.83463	1287.69946	177.27252	
1809	18.080	150.15221	1224.75842	269.70898	194.14267	1239.51257	245.18829	318.30151	1284.72791	175.87375	
1810	18.090	152.83228	1218.18994	269.14203	195.82906	1232.93884	244.71474	320.04941	1280.58313	175.53412	
1811	18.100	156.08540	1213.40527	266.93634	199.71767	1231.23010	242.62914	321.48386	1277.10645	174.45590	
1812	18.110	158.55254	1208.15027	265.44501	200.98755	1224.27148	242.32080	323.68384	1277.07837	172.89192	
1813	18.120	161.12091	1202.50269	264.67111	204.54202	1221.11340	240.76309	325.87872	1274.19824	172.19063	
1814	18.130	163.38605	1197.41418	263.64441	206.22572	1216.23682	239.80029	326.44363	1268.73584	172.80537	
1815	18.140	165.99463	1192.05750	262.60672	208.56578	1211.88159	239.19984	328.36990	1268.49475	171.17627	
1816	18.150	169.02831	1188.73096	261.49734	211.01955	1207.53223	238.02473	331.30307	1268.18933	170.50778	
1817	18.160	171.36441	1184.82227	260.72046	213.76672	1205.74792	236.94617	332.48331	1266.27625	169.91992	
1818	18.170	173.90831	1181.02515	260.11493	216.44864	1202.64624	236.07408	334.65881	1265.50647	169.93738	
1819	18.180	176.45854	1179.62939	258.42834	218.57796	1200.91577	234.38974	336.58374	1265.25586	168.31123	
1820	18.190	178.65778	1177.56396	257.13382	220.48810	1198.72595	233.90247	339.00009	1264.66931	167.18544	
1821	18.200	180.27673	1175.22925	254.95941	222.56786	1198.01123	231.98503	340.59875	1263.32007	167.44171	
1822	18.210	183.38345	1174.10352	252.70323	225.36859	1197.80664	229.36189	342.74164	1264.13977	166.31226	
1823	18.220	186.15947	1172.73926	250.46785	227.81697	1195.45496	228.23056	345.30161	1263.93750	165.60620	
1824	18.230	188.39540	1170.96130	249.13783	230.35663	1194.58386	226.42088	347.65048	1263.96094	164.74609	
1825	18.240	190.77249	1169.92529	245.61400	232.49652	1193.81140	225.00859	350.22177	1263.72473	163.76666	
1826	18.250	192.92490	1169.10754	243.74269	234.81413	1193.44128	222.38397	352.05731	1263.95410	163.10347	
1827	18.260	195.82909	1169.83630	239.89775	236.83113	1193.47827	220.53331	354.16138	1264.31946	162.36139	
1828	18.270	198.46271	1169.88733	237.61653	239.86253	1194.16919	217.64192	356.74060	1265.60986	161.15395	
1829	18.280	200.64317	1169.40259	233.83472	242.15617	1194.03369	214.43333	360.43027	1270.39392	159.42577	
1830	18.290	202.72656	1168.93140	231.41833	244.55807	1194.40295	211.98489	361.34552	1268.26685	159.67229	
1831	18.300	204.88454	1168.53210	228.20436	246.58144	1194.87463	210.35146	363.81680	1270.15613	158.26707	
1832	18.310	207.58211	1168.57800	225.02873	248.60701	1194.75854	207.35706	365.86337	1271.29980	157.56161	
1833	18.320	209.54509	1168.64441	222.17549	251.37436	1195.98706	204.55916	368.49042	1273.14771	155.76373	
1834	18.330	212.28888	1170.17456	218.56871	253.59023	1197.04932	201.87866	370.84363	1274.81213	155.29337	
1835	18.340	214.03076	1169.22034	216.36546	255.34238	1197.46155	199.24588	372.74466	1276.42822	154.29486	
1836	18.350	216.60016	1171.56409	212.31136	257.68503	1199.02551	197.20366	375.04779	1279.41565	153.66870	
1837	18.360	217.76207	1171.65283	210.22791	259.46494	1199.55884	194.93716	376.97842	1279.68445	151.84390	
1838	18.370	219.81470	1172.87219	207.04906	261.19293	1200.15515	192.65883	379.05054	1281.50159	150.99358	
1839	18.380	221.45114	1174.00464	204.33717	263.41653	1202.03894	190.05147	381.66907	1285.44067	150.16362	
1840	18.390	223.43053	1175.34949	201.16290	264.94760	1203.52295	187.98055	383.63834	1287.78040	148.88248	
1841	18.400	224.15851	1175.28296	199.80310	266.55136	1205.11206	185.45938	384.31088	1285.76331	148.72803	
